<?xml version="1.0" standalone="no"?>
<!DOCTYPE svg PUBLIC "-//W3C//DTD SVG 20010904//EN"
 "http://www.w3.org/TR/2001/REC-SVG-20010904/DTD/svg10.dtd">
<svg version="1.0" xmlns="http://www.w3.org/2000/svg"
 width="1280.000000pt" height="640.000000pt" viewBox="0 0 1280.000000 640.000000"
 preserveAspectRatio="xMidYMid meet">
<g transform="translate(0.000000,640.000000) scale(0.100000,-0.100000)"
fill="#000000" stroke="none">
<path d="M5371 4493 c-41 -21 -71 -74 -71 -123 0 -41 52 -290 86 -409 13 -48
44 -142 69 -211 51 -145 166 -540 189 -652 21 -102 20 -143 -4 -192 -27 -56
-65 -79 -222 -135 -205 -73 -286 -126 -304 -197 -9 -34 15 -92 47 -117 67 -49
170 -31 475 83 339 127 360 142 358 249 -2 59 -100 488 -160 699 -41 143 -296
898 -318 939 -35 69 -91 94 -145 66z"/>
<path d="M12581 4064 c-41 -52 -46 -95 -46 -389 0 -154 4 -473 8 -710 5 -239
4 -443 0 -459 -8 -27 -11 -24 -48 65 -119 290 -496 1061 -568 1161 -70 98
-139 155 -209 172 -114 27 -187 -150 -188 -454 0 -241 -53 -780 -96 -990 -34
-165 -36 -288 -5 -348 23 -46 71 -82 109 -82 35 0 89 28 107 57 30 45 44 155
55 433 27 705 32 800 41 879 12 99 24 130 44 110 19 -19 130 -263 237 -518
117 -279 203 -464 295 -635 145 -270 220 -375 302 -428 56 -35 94 -36 126 -2
43 46 50 106 45 374 -5 276 -6 944 -2 1275 4 300 -21 423 -97 488 -42 35 -83
35 -110 1z"/>
<path d="M344 4045 c-116 -13 -166 -32 -217 -80 -36 -34 -55 -65 -68 -106 -20
-70 -66 -1477 -55 -1699 9 -179 17 -207 64 -227 43 -18 98 -12 123 14 23 23
49 321 49 556 0 186 5 200 70 237 41 23 55 25 170 25 178 0 248 -23 333 -108
103 -103 178 -283 217 -518 22 -133 37 -172 80 -194 43 -22 76 -18 112 14 31
28 33 34 32 93 -1 153 -92 487 -159 586 -42 62 -176 191 -247 239 -38 24 -68
48 -68 52 0 4 45 58 100 120 54 62 110 135 123 164 129 275 -22 672 -304 802
-102 46 -165 52 -355 30z m266 -215 c94 -48 162 -136 206 -267 80 -239 -59
-451 -344 -524 -43 -11 -109 -19 -154 -19 l-78 0 0 268 c1 334 14 451 59 511
38 50 236 69 311 31z"/>
<path d="M6374 3989 c-11 -6 -29 -25 -39 -42 -36 -60 -31 -305 15 -872 11
-126 24 -303 30 -393 13 -185 28 -279 63 -374 51 -142 132 -238 245 -291 58
-27 78 -32 147 -32 74 0 87 4 165 42 176 86 286 245 347 502 37 158 41 402 14
821 -37 557 -39 567 -117 601 -32 15 -56 19 -80 14 -62 -11 -64 -22 -54 -280
5 -126 16 -320 25 -429 24 -278 17 -563 -14 -661 -51 -155 -155 -311 -235
-349 -70 -33 -148 -9 -188 60 -53 91 -103 466 -118 879 -15 418 -32 584 -75
732 -21 71 -73 100 -131 72z"/>
<path d="M7765 3934 c-163 -43 -208 -95 -155 -182 35 -57 70 -65 280 -63 l185
1 43 -27 c24 -16 45 -38 49 -51 12 -49 -5 -1136 -21 -1337 -19 -226 -13 -274
34 -325 23 -25 36 -30 75 -30 62 0 100 24 128 80 21 44 22 54 30 630 7 554 6
641 -20 952 l-6 77 29 11 c18 7 102 10 234 8 186 -3 209 -1 244 16 50 25 79
84 67 138 -11 47 -17 55 -54 75 -28 14 -76 17 -372 18 -187 1 -432 4 -545 8
-113 3 -214 4 -225 1z"/>
<path d="M4140 3856 c-91 -26 -167 -68 -250 -140 -50 -43 -165 -208 -189 -270
-32 -85 -44 -202 -38 -369 4 -127 9 -167 31 -242 34 -112 82 -204 150 -286
119 -144 208 -184 411 -184 97 0 134 4 195 23 190 59 345 190 439 372 70 135
87 256 56 402 -40 192 -208 456 -371 586 -135 107 -295 147 -434 108z m236
-261 c69 -34 159 -117 234 -215 76 -99 97 -144 110 -229 30 -191 -93 -437
-258 -518 -52 -25 -67 -28 -167 -28 -100 0 -116 3 -171 28 -78 36 -125 85
-162 167 -65 144 -90 346 -58 470 45 174 141 301 263 346 54 20 142 12 209
-21z"/>
<path d="M3237 3819 c-39 -23 -48 -73 -58 -313 -10 -262 -23 -441 -45 -636
-21 -186 -26 -205 -49 -205 -27 0 -61 66 -134 257 -66 173 -169 406 -243 550
-61 120 -100 158 -162 158 -37 0 -48 -5 -70 -31 -41 -48 -35 -82 40 -226 37
-71 80 -153 95 -183 16 -30 49 -109 73 -175 197 -532 258 -672 342 -778 46
-59 85 -83 139 -87 97 -7 130 11 145 75 9 39 27 271 50 635 6 96 22 276 36
400 39 342 28 493 -40 549 -22 18 -97 24 -119 10z"/>
<path d="M9317 3780 c-15 -12 -31 -38 -37 -58 -5 -20 -10 -138 -10 -262 0
-124 -9 -488 -20 -809 -21 -611 -20 -641 21 -682 35 -35 133 -15 179 37 56 64
55 52 55 906 0 782 0 787 -21 815 -29 39 -82 73 -114 73 -15 0 -39 -9 -53 -20z"/>
<path d="M10449 3766 c-188 -55 -342 -184 -441 -366 -148 -274 -218 -500 -218
-702 0 -119 16 -192 64 -293 66 -137 161 -246 281 -320 110 -67 160 -80 300
-78 198 2 332 49 484 169 246 194 363 507 321 854 -48 388 -223 665 -468 740
-90 28 -222 26 -323 -4z m171 -187 c201 -32 335 -169 396 -409 8 -30 17 -113
20 -185 15 -326 -88 -569 -285 -673 -126 -68 -276 -80 -403 -34 -126 45 -242
158 -289 280 -60 156 -23 384 102 633 104 209 222 348 328 385 45 16 51 16
131 3z"/>
<path d="M1920 3531 c-477 -104 -524 -122 -549 -208 -11 -38 16 -106 50 -123
41 -23 153 -6 322 49 239 77 297 71 329 -34 49 -160 46 -230 -14 -280 -36 -30
-73 -41 -218 -59 -179 -24 -284 -87 -284 -171 0 -93 141 -138 271 -86 66 26
162 48 245 57 53 5 67 3 81 -10 23 -23 55 -138 69 -241 10 -83 10 -86 -14
-123 -49 -73 -209 -132 -363 -132 -104 0 -172 -20 -218 -65 -68 -66 -74 -164
-12 -195 50 -25 194 -18 289 14 43 15 133 36 200 47 183 30 226 40 284 67 73
33 95 69 88 142 -8 91 -94 663 -126 840 -16 91 -36 217 -45 280 -20 145 -37
193 -82 227 -52 40 -131 41 -303 4z"/>
</g>
</svg>
